<svg width="151" height="140" viewBox="0 0 151 140" fill="none" xmlns="http://www.w3.org/2000/svg">
<g clip-path="url(#clip0_518_521)">
<path d="M94.5918 7.90817C89.4919 2.80824 82.7116 0 75.5 0C68.2884 0 61.5081 2.80824 56.4082 7.90817C51.3082 13.0072 48.5 19.7884 48.5 27C48.5 34.2116 51.3082 40.9919 56.4082 46.0918C61.5081 51.1918 68.2884 54 75.5 54C82.7116 54 89.4919 51.1918 94.5918 46.0918C99.6918 40.9919 102.5 34.2116 102.5 27C102.5 19.7884 99.6918 13.0081 94.5918 7.90817ZM72.6709 39.9588L62.3507 29.6386L66.519 25.4703L72.6719 31.6232L87.476 16.8191L91.6443 20.9874L72.6728 39.9588H72.6709Z" fill="url(#paint0_linear_518_521)"/>
</g>
<path d="M148 105.535H135.63V87.5659H124.732V76.4703H135.63V64H148V105.535ZM104.606 91.7881C101.791 95.5848 98.2894 98.6615 94.1004 101.018C89.9115 103.309 85.3298 104.586 80.3555 104.848V93.3592C85.1989 92.9664 89.1915 91.1335 92.3332 87.8605C95.4749 84.5874 97.4058 80.6598 98.1258 76.0775H81.2391V65.1783H126.99V76.0775H110.693C110.496 78.1068 110.104 80.0706 109.514 81.969L129.543 94.4393L123.554 104.062L104.606 91.7881ZM148 108.677V139.116H84.7735V108.677H148ZM135.63 128.413V119.38H97.2421V128.413H135.63Z" fill="#3AFFB0"/>
<path d="M77.6156 88.8424H68.6813V105.535H56.3109V64H68.6813V76.4703H77.6156V88.8424ZM27.5446 91.2972C24.7301 95.1593 21.1957 98.3015 16.9413 100.724C12.7524 103.146 8.10528 104.488 3 104.749V93.261C7.84347 92.8682 11.8688 91.0353 15.0759 87.7623C18.2831 84.4892 20.1812 80.5943 20.7703 76.0775H3.98178V65.1783H49.7329V76.0775H33.3371C33.2717 77.3867 32.9771 79.2196 32.4535 81.5762L52.0892 93.5556L46.1985 103.178L27.5446 91.2972ZM37.657 107.106C47.3439 107.106 55.0673 108.415 60.8271 111.034C66.5869 113.652 69.4668 117.809 69.4668 123.504C69.4668 129.264 66.5869 133.454 60.8271 136.072C55.0673 138.691 47.3439 140 37.657 140C28.0355 140 20.3121 138.691 14.4869 136.072C8.72707 133.454 5.84717 129.264 5.84717 123.504C5.84717 117.809 8.72707 113.652 14.4869 111.034C20.3121 108.415 28.0355 107.106 37.657 107.106ZM37.657 129.592C43.155 129.592 47.6057 129.101 51.0092 128.119C54.4127 127.071 56.1145 125.533 56.1145 123.504C56.1145 121.475 54.4127 119.969 51.0092 118.987C47.6057 118.005 43.155 117.514 37.657 117.514C32.159 117.514 27.7082 118.005 24.3047 118.987C20.9012 119.969 19.1994 121.475 19.1994 123.504C19.1994 125.533 20.9012 127.071 24.3047 128.119C27.7082 129.101 32.159 129.592 37.657 129.592Z" fill="#3AFFB0"/>
<defs>
<linearGradient id="paint0_linear_518_521" x1="75.5" y1="54" x2="75.5" y2="0" gradientUnits="userSpaceOnUse">
<stop stop-color="#3AFFB0"/>
<stop offset="1" stop-color="#00DDBD"/>
</linearGradient>
<clipPath id="clip0_518_521">
<rect width="54" height="54" fill="white" transform="translate(48.5)"/>
</clipPath>
</defs>
</svg>
